HIERARCHY
ROOT RootJoint
{
    OFFSET   0.000000   0.000000   0.000000
    CHANNELS 6 Xposition Yposition Zposition Xrotation Yrotation Zrotation
    JOINT pelvis_lowerback
    {
        OFFSET   0.000000   0.093605   0.000000
        CHANNELS 3 Xrotation Yrotation Zrotation
        JOINT lowerback_torso
        {
            OFFSET   0.000000   0.100000   0.000000
            CHANNELS 3 Xrotation Yrotation Zrotation
            JOINT torso_head
            {
                OFFSET   0.000000   0.282350   0.000000
                CHANNELS 3 Xrotation Yrotation Zrotation
                End Site
                {
                    OFFSET   0.000000   0.192650   0.000000
                }
            }
            JOINT rTorso_Clavicle
            {
                OFFSET  -0.001000   0.157500   0.000000
                CHANNELS 3 Xrotation Yrotation Zrotation
                JOINT rShoulder
                {
                    OFFSET  -0.117647   0.000000   0.000000
                    CHANNELS 3 Xrotation Yrotation Zrotation
                    JOINT rElbow
                    {
                        OFFSET  -0.245000   0.000000   0.000000
                        CHANNELS 3 Xrotation Yrotation Zrotation
                        JOINT rWrist
                        {
                            OFFSET  -0.240000   0.000000   0.000000
                            CHANNELS 3 Xrotation Yrotation Zrotation
                            End Site
                            {
                                OFFSET  -0.116353  -0.002500   0.000000
                            }
                        }
                    }
                }
            }
            JOINT lTorso_Clavicle
            {
                OFFSET   0.001000   0.157500   0.000000
                CHANNELS 3 Xrotation Yrotation Zrotation
                JOINT lShoulder
                {
                    OFFSET   0.117647   0.000000   0.000000
                    CHANNELS 3 Xrotation Yrotation Zrotation
                    JOINT lElbow
                    {
                        OFFSET   0.245000   0.000000   0.000000
                        CHANNELS 3 Xrotation Yrotation Zrotation
                        JOINT lWrist
                        {
                            OFFSET   0.240000   0.000000   0.000000
                            CHANNELS 3 Xrotation Yrotation Zrotation
                            End Site
                            {
                                OFFSET   0.116353  -0.002500   0.000000
                            }
                        }
                    }
                }
            }
        }
    }
    JOINT rHip
    {
        OFFSET  -0.100000  -0.051395   0.000000
        CHANNELS 3 Xrotation Yrotation Zrotation
        JOINT rKnee
        {
            OFFSET   0.000000  -0.410000   0.000000
            CHANNELS 3 Xrotation Yrotation Zrotation
            JOINT rAnkle
            {
                OFFSET   0.000000  -0.390000   0.000000
                CHANNELS 3 Xrotation Yrotation Zrotation
                JOINT rToeJoint
                {
                    OFFSET   0.000000  -0.050000   0.130000
                    CHANNELS 3 Xrotation Yrotation Zrotation
                    End Site
                    {
                        OFFSET  -0.010000   0.002000   0.060000
                    }
                }
            }
        }
    }
    JOINT lHip
    {
        OFFSET   0.100000  -0.051395   0.000000
        CHANNELS 3 Xrotation Yrotation Zrotation
        JOINT lKnee
        {
            OFFSET   0.000000  -0.410000   0.000000
            CHANNELS 3 Xrotation Yrotation Zrotation
            JOINT lAnkle
            {
                OFFSET   0.000000  -0.390000   0.000000
                CHANNELS 3 Xrotation Yrotation Zrotation
                JOINT lToeJoint
                {
                    OFFSET   0.000000  -0.050000   0.130000
                    CHANNELS 3 Xrotation Yrotation Zrotation
                    End Site
                    {
                        OFFSET   0.010000   0.002000   0.060000
                    }
                }
            }
        }
    }
}
MOTION
Frames: 12
Frame Time:   0.008333
 -2.346177   0.854817   3.818826  -5.780205 -18.585320  -5.124134  10.342998  -2.227169  -2.434246   6.272384  -5.594060   4.856899   7.391720  -9.313360   3.597888  -5.845907   2.755213   2.023335 -35.641066 -11.472016  29.517650   0.236564  89.110303  -0.235669  -3.547810   6.454518  -4.540280  -1.945586  -8.176819   4.174521 -20.853926 -35.733916 -50.830429 -179.999168 -67.548692 -179.999791   0.324796 -10.016876  -1.866068 -18.335915 -18.520921 -25.497215  39.468193   0.000293   0.002031   3.073101  -5.060285   8.698074 -23.539554  -0.000329  -0.002036 -17.078886  10.465061  19.390476  46.196658   0.000323   0.000869 -23.192236   5.787904   2.936354  -0.681826  -0.000149  -0.001419
 -2.345411   0.854968   3.819725  -5.767860 -18.662548  -5.134068  10.122417  -2.203322  -2.423103   6.392606  -5.608546   4.929931   7.379911  -9.308672   3.669395  -5.854070   2.478084   2.106714 -35.787535 -11.672079  29.380229   0.206146  88.833199  -0.205094  -3.540341   6.566096  -4.542026  -1.813415  -7.889386   3.980114 -20.360597 -35.531818 -50.969571 -179.999001 -67.486103 -179.999759   0.331600 -10.017372  -1.912314 -18.240102 -18.599133 -25.511317  39.193095   0.000203   0.001924   3.094805  -5.076449   8.786158 -23.350228  -0.000332  -0.001877 -16.935405  10.457449  19.311566  46.099742   0.000285   0.000821 -23.369922   5.719995   3.001894  -0.541966  -0.000147  -0.001392
 -2.344703   0.855100   3.820612  -5.757915 -18.711687  -5.140212   9.904116  -2.180041  -2.414768   6.506420  -5.625438   4.998549   7.363487  -9.302587   3.734955  -5.849293   2.188407   2.199481 -35.914801 -11.885170  29.245530   0.181121  88.558398  -0.179968  -3.538546   6.601601  -4.564650  -1.662398  -7.601382   3.781199 -19.875187 -35.336135 -51.105740 -179.998857 -67.426629 -179.999710   0.336189 -10.017949  -1.968819 -18.131490 -18.672390 -25.527390  38.931034   0.000099   0.001755   3.109271  -5.094267   8.865735 -23.172059  -0.000312  -0.001681 -16.800879  10.448963  19.233327  46.008482   0.000242   0.000754 -23.539710   5.654722   3.061413  -0.400080  -0.000139  -0.001332
 -2.344032   0.855207   3.821453  -5.752512 -18.742736  -5.145845   9.696088  -2.158338  -2.407633   6.614382  -5.642661   5.063956   7.346300  -9.296587   3.795361  -5.838860   1.903139   2.294734 -36.029275 -12.096369  29.117456   0.158919  88.296507  -0.157733  -3.539516   6.597354  -4.600496  -1.510380  -7.322671   3.589603 -19.411202 -35.149042 -51.233336 -179.998773 -67.372566 -179.999666   0.340112 -10.018599  -2.027020 -18.020973 -18.741058 -25.545534  38.689343   0.000007   0.001565   3.123709  -5.112642   8.939144 -23.010793  -0.000280  -0.001478 -16.676271  10.441341  19.158987  45.926858   0.000199   0.000675 -23.702938   5.593315   3.115853  -0.257192  -0.000126  -0.001253
 -2.343389   0.855290   3.822234  -5.751236 -18.761429  -5.151651   9.499764  -2.137779  -2.401132   6.716183  -5.658974   5.126558   7.329697  -9.290866   3.851276  -5.825976   1.629912   2.389003 -36.133946 -12.299475  28.997222   0.139054  88.049720  -0.137889  -3.541718   6.576031  -4.641116  -1.363763  -7.057854   3.408551 -18.973427 -34.972122 -51.352334 -179.998744 -67.323928 -179.999635   0.341488 -10.078389  -2.083076 -17.912419 -18.805619 -25.565131  38.466879  -0.000066   0.001376   3.138533  -5.131078   9.007122 -22.862910  -0.000246  -0.001288 -16.560985  10.434353  19.088811  45.854243   0.000159   0.000595 -23.860026   5.535641   3.165657  -0.113881  -0.000109  -0.001164
 -2.342769   0.855353   3.822953  -5.753465 -18.771140  -5.157700   9.314680  -2.117886  -2.395056   6.811209  -5.673747   5.186257   7.314285  -9.285448   3.903244  -5.812184   1.372128   2.480668 -36.230425 -12.491883  28.885207   0.121380  87.818274  -0.120279  -3.544457   6.547763  -4.681520  -1.225507  -6.808837   3.238312 -18.564127 -34.806878 -51.464325 -179.998742 -67.277270 -179.999609   0.345523 -10.067299  -2.137004 -17.807245 -18.866402 -25.585612  38.261308  -0.000122   0.001198   3.153511  -5.149253   9.070182 -22.725388  -0.000212  -0.001115 -16.454287  10.427934  19.022554  45.789299   0.000125   0.000517 -24.010715   5.481591   3.211246   0.029025  -0.000091  -0.001071
 -2.342172   0.855401   3.823607  -5.758573 -18.773950  -5.163860   9.140231  -2.098400  -2.389198   6.899323  -5.686750   5.243030   7.299848  -9.280346   3.951556  -5.798371   1.130858   2.568749 -36.319833 -12.672601  28.781247   0.105746  87.601857  -0.104737  -3.547384   6.517716  -4.719419  -1.095824  -6.575960   3.078898 -18.182017 -34.652598 -51.569462 -179.998772 -67.234729 -179.999595   0.349419 -10.058585  -2.187686 -17.706075 -18.923661 -25.606579  38.070613  -0.000161   0.001036   3.168411  -5.166985   9.128742 -22.596332  -0.000181  -0.000961 -16.355569  10.422105  18.959905  45.730727   0.000095   0.000446 -24.154628   5.431038   3.253022   0.170754  -0.000073  -0.000977
 -2.341666   0.855327   3.824268  -5.742853 -18.715077  -5.178553   8.939109  -2.080453  -2.380387   6.987042  -5.714518   5.310724   7.289556  -9.261237   4.012826  -5.754244   0.848303   2.675351 -36.394185 -12.874798  28.661630   0.096347  87.285364  -0.095311  -3.555123   6.608379  -4.735656  -0.962190  -6.343842   2.938595 -17.796479 -34.507652 -51.673776 -179.998295 -67.101565 -179.999330   0.331889 -10.051061  -2.253963 -17.584997 -19.017983 -25.613083  37.878192  -0.000224   0.000846   3.109818  -5.200869   9.209467 -22.387923  -0.000194  -0.000839 -16.304440  10.344463  18.915380  45.723650   0.000076   0.000360 -24.319767   5.333493   3.294133   0.309515  -0.000072  -0.000945
 -2.341180   0.855192   3.824907  -5.733625 -18.640062  -5.196017   8.746782  -2.060885  -2.374079   7.070531  -5.742412   5.380232   7.279003  -9.241968   4.068195  -5.701405   0.560840   2.792910 -36.454534 -13.086010  28.546797   0.087203  86.975506  -0.086188  -3.566828   6.632951  -4.764285  -0.831458  -6.113393   2.805401 -17.429353 -34.368981 -51.769907 -179.997896 -66.967675 -179.999067   0.314456 -10.045090  -2.322428 -17.458274 -19.104034 -25.621590  37.709475  -0.000278   0.000665   3.039404  -5.229063   9.288395 -22.191339  -0.000195  -0.000692 -16.262527  10.264793  18.876941  45.736466   0.000062   0.000284 -24.494008   5.239920   3.328049   0.458066  -0.000063  -0.000900
 -2.340693   0.855025   3.825510  -5.731434 -18.557456  -5.215226   8.565398  -2.042183  -2.368294   7.150575  -5.768911   5.449754   7.268734  -9.223628   4.118630  -5.645746   0.281657   2.915269 -36.505518 -13.294394  28.440665   0.078207  86.681333  -0.077266  -3.580544   6.622776  -4.798219  -0.706245  -5.891544   2.679480 -17.082507 -34.236272 -51.858194 -179.997640 -66.842298 -179.998866   0.297942 -10.040306  -2.384759 -17.332409 -19.183256 -25.633338  37.560750  -0.000315   0.000512   2.970216  -5.254281   9.362895 -22.012578  -0.000183  -0.000552 -16.225793  10.189363  18.841916  45.761248   0.000053   0.000223 -24.670174   5.152864   3.357167   0.611223  -0.000047  -0.000840
 -2.340199   0.854839   3.826071  -5.734862 -18.471940  -5.235151   8.394672  -2.024255  -2.362290   7.226536  -5.793320   5.518367   7.259006  -9.206384   4.165128  -5.590043   0.016266   3.038041 -36.549795 -13.494821  28.343452   0.069602  86.404399  -0.068771  -3.595016   6.596741  -4.831885  -0.587697  -5.681296   2.560874 -16.756780 -34.110721 -51.940059 -179.997509 -66.725732 -179.998732   0.282248 -10.036464  -2.441643 -17.210119 -19.256927 -25.647951  37.426842  -0.000336   0.000386   2.905495  -5.278185   9.432306 -21.848166  -0.000164  -0.000432 -16.192901  10.119050  18.808677  45.793488   0.000049   0.000176 -24.844098   5.071702   3.382371   0.764943  -0.000026  -0.000772
 -2.339694   0.854644   3.826585  -5.742656 -18.386374  -5.255089   8.233895  -2.006700  -2.355821   7.297783  -5.815259   5.585336   7.249886  -9.190224   4.208287  -5.535785  -0.233174   3.158491 -36.589043 -13.684984  28.254601   0.061577  86.144724  -0.060877  -3.609617   6.563774  -4.862690  -0.476310  -5.483682   2.449462 -16.452095 -33.992891 -52.016504 -179.997474 -66.617274 -179.998656   0.267296 -10.033376  -2.494513 -17.092670 -19.325745 -25.664872  37.303994  -0.000344   0.000286   2.846041  -5.301414   9.496632 -21.694639  -0.000142  -0.000333 -16.163145  10.053887  18.776321  45.830304   0.000048   0.000139 -25.013358   4.995803   3.404245   0.916795  -0.000004  -0.000701
